<?xml version="1.0" standalone="no"?>
<!DOCTYPE svg PUBLIC "-//W3C//DTD SVG 20010904//EN"
 "http://www.w3.org/TR/2001/REC-SVG-20010904/DTD/svg10.dtd">
<svg version="1.0" xmlns="http://www.w3.org/2000/svg"
 width="331.000000pt" height="331.000000pt" viewBox="0 0 331.000000 331.000000"
 preserveAspectRatio="xMidYMid meet">
<metadata>
Created by potrace 1.11, written by Peter Selinger 2001-2013
</metadata>
<g transform="translate(0.000000,331.000000) scale(0.100000,-0.100000)"
fill="#000000" stroke="none">
<path d="M337 2972 l-337 -337 0 -980 0 -980 338 -338 337 -337 60 0 59 0 -34
35 c-19 19 -35 41 -36 50 -2 14 78 95 94 95 5 0 35 -27 66 -60 51 -53 55 -61
44 -80 -7 -11 -16 -20 -20 -20 -5 0 -8 -4 -8 -10 0 -7 253 -10 739 -10 l739 0
36 35 c40 39 51 38 95 -9 20 -21 34 -26 74 -26 l49 0 339 339 339 340 0 977 0
976 -339 339 -339 339 -115 0 c-91 0 -117 -3 -127 -16 -28 -32 -47 -35 -72 -9
l-23 25 -638 0 c-459 0 -636 -3 -631 -11 7 -12 -73 -99 -92 -99 -7 0 -37 25
-67 55 l-54 55 -69 0 -69 0 -338 -338z m2267 233 c31 -31 56 -64 56 -74 0 -16
-75 -91 -91 -91 -12 0 -119 112 -119 125 0 11 83 95 94 95 2 0 29 -25 60 -55z
m-1410 -71 c31 -31 56 -62 56 -69 0 -7 -21 -31 -46 -55 -45 -41 -46 -41 -67
-23 -44 39 -97 98 -97 110 0 14 75 93 89 93 5 0 34 -25 65 -56z m1640 -160
c31 -31 56 -59 56 -63 0 -15 -74 -91 -89 -91 -9 0 -36 19 -61 43 -78 75 -77
70 -29 121 23 25 47 46 54 46 7 0 38 -25 69 -56z m-1423 -57 c77 -74 76 -70
28 -121 -23 -25 -47 -46 -54 -46 -14 0 -125 109 -125 122 0 16 75 88 91 88 9
0 36 -19 60 -43z m1649 -167 c28 -28 50 -58 50 -67 0 -16 -73 -93 -88 -93 -13
0 -122 110 -122 122 0 19 72 88 92 88 11 0 41 -23 68 -50z m-1416 -66 c31 -31
56 -61 56 -67 0 -18 -72 -87 -91 -87 -21 0 -119 96 -119 117 0 16 74 93 89 93
4 0 34 -25 65 -56z m1590 -112 c3 -5 -17 -31 -44 -57 -37 -36 -53 -46 -61 -38
-8 8 0 23 31 57 41 44 63 55 74 38z m-1379 -99 c17 -15 40 -41 53 -57 l23 -29
-33 -35 c-58 -60 -71 -60 -133 5 -30 32 -55 61 -55 65 0 5 18 28 41 53 45 49
50 49 104 -2z m138 -1155 l-338 -338 -337 337 -338 338 337 337 338 338 337
-337 338 -338 -337 -337z m101 916 c31 -31 56 -60 56 -65 0 -15 -77 -89 -92
-89 -8 0 -35 19 -59 43 -77 76 -76 70 -28 121 23 25 47 46 54 46 7 0 38 -25
69 -56z m233 -234 c24 -24 43 -51 43 -60 0 -15 -73 -90 -88 -90 -13 0 -122
111 -122 125 0 7 21 31 46 54 51 48 47 49 121 -29z m167 -168 c3 -5 -19 -32
-48 -62 -45 -44 -55 -49 -58 -34 -3 12 10 34 36 62 39 41 59 51 70 34z m-1520
-272 c34 -38 35 -42 21 -63 -18 -28 -55 -61 -77 -69 -10 -4 -29 7 -54 33 l-38
39 49 50 c27 28 52 50 56 50 4 0 23 -18 43 -40z m203 -202 c29 -29 53 -58 53
-66 0 -17 -74 -92 -91 -92 -19 0 -119 101 -119 119 0 20 70 91 89 91 9 0 39
-23 68 -52z m226 -228 l59 -59 -23 -28 c-13 -16 -36 -39 -51 -51 l-28 -23 -51
47 c-77 73 -78 79 -28 130 24 24 47 44 53 44 5 0 36 -27 69 -60z m224 -222
c29 -29 53 -58 53 -64 0 -14 -79 -94 -92 -94 -16 0 -118 102 -118 119 0 20 69
91 89 91 9 0 39 -23 68 -52z m-1367 -177 c0 -20 -70 -91 -89 -91 -9 0 -37 21
-63 47 l-48 47 52 53 52 53 48 -47 c26 -26 48 -54 48 -62z m1587 -43 c29 -29
53 -59 53 -67 0 -20 -70 -91 -89 -91 -18 0 -121 99 -121 117 0 14 79 93 94 93
6 0 34 -23 63 -52z m-1416 -115 c31 -32 55 -63 55 -70 -1 -6 -20 -30 -44 -52
-50 -48 -55 -47 -125 28 -39 42 -46 54 -38 70 11 20 78 81 89 81 4 0 33 -26
63 -57z m1640 -110 c32 -31 59 -61 59 -67 0 -14 -81 -96 -96 -96 -10 0 -124
113 -124 123 0 6 92 97 97 97 3 0 31 -25 64 -57z m-1414 -115 c29 -29 53 -58
53 -65 0 -19 -72 -93 -90 -93 -19 0 -120 100 -120 119 0 20 70 91 89 91 9 0
39 -23 68 -52z m1640 -110 c29 -29 53 -59 53 -67 0 -20 -70 -91 -90 -91 -19 0
-124 104 -119 119 8 21 74 90 89 90 8 1 38 -22 67 -51z"/>
</g>
</svg>
