<svg xmlns="http://www.w3.org/2000/svg" width="208" height="86" viewBox="0 0 208 86"><path fill="#575756" d="M3.188 19.102l-.008.005v46.817l16.29 16.29h2.773l-1.392-1.39-.132-.134c-.296-.295-.296-.78 0-1.07l1.488-1.49c.294-.293.775-.293 1.067 0l.135.136 2.04 2.04c.295.292.295.776 0 1.068l-.837.84h35.612l1.38-1.382c.292-.294.776-.294 1.07 0l1.384 1.382h2.23l.006-.008L3.188 19.102zm8.43 14.724l1.49-1.488c.293-.294.774-.294 1.07 0l2.174 2.172c.295.295.295.78 0 1.07l-1.487 1.49c-.295.293-.776.293-1.07 0l-2.175-2.173c-.293-.295-.293-.776 0-1.07zm-5.386-5.39L7.72 26.95c.293-.295.774-.295 1.07 0l2.175 2.174c.292.295.292.776 0 1.07l-1.49 1.488c-.293.292-.773.292-1.07 0l-2.172-2.174c-.295-.295-.295-.776 0-1.07zM9.285 65.21l-1.488 1.487c-.293.295-.774.295-1.07.003l-2.174-2.174c-.294-.295-.294-.776 0-1.07l1.488-1.492c.294-.292.777-.292 1.07 0l2.175 2.178c.293.293.293.774 0 1.068zm5.388 5.39l-1.49 1.485c-.294.297-.775.297-1.067.002L9.94 69.913c-.293-.295-.293-.776 0-1.07l1.49-1.49c.29-.29.772-.29 1.067.004l2.176 2.172c.294.294.294.775 0 1.07zm5.39 5.386l-1.49 1.488c-.294.297-.775.297-1.07 0l-2.173-2.172c-.295-.295-.295-.776 0-1.07l1.486-1.49c.294-.293.775-.293 1.07 0l2.175 2.176c.296.295.296.776.002 1.068zM21.74 40.97l-1.486 1.488c-.296.294-.776.294-1.07 0l-2.175-2.175c-.296-.295-.296-.776 0-1.07l1.486-1.488c.295-.292.776-.292 1.07 0l2.175 2.174c.296.294.296.775 0 1.07zm5.387 5.39l-1.486 1.484c-.295.297-.773.295-1.07.003l-2.173-2.175c-.294-.295-.294-.776-.002-1.07l1.49-1.488c.293-.295.776-.295 1.07 0l2.172 2.174c.295.295.295.776 0 1.07zm5.39 5.39l-1.488 1.484c-.296.295-.777.295-1.07 0l-2.176-2.172c-.293-.297-.292-.78 0-1.073l1.488-1.486c.296-.295.776-.295 1.072 0l2.173 2.172c.294.297.294.778 0 1.073zm5.387 5.385l-1.49 1.488c-.29.295-.77.295-1.067 0l-2.172-2.175c-.297-.294-.297-.775-.002-1.07l1.488-1.488c.295-.292.777-.292 1.07 0l2.174 2.174c.296.295.296.776 0 1.07zm5.39 5.39l-1.487 1.487c-.297.295-.776.295-1.07 0L39.2 62.477l-.64-.64c-.292-.294-.292-.776 0-1.07l1.49-1.488c.293-.293.775-.293 1.07 0l2.172 2.174c.297.294.297.775 0 1.07zm5.384 5.388L47.196 69.4c-.297.293-.78.293-1.07 0l-2.177-2.174c-.296-.294-.296-.778 0-1.07l1.488-1.488c.292-.295.773-.295 1.07 0l2.17 2.175c.298.29.298.773 0 1.07zm5.39 5.386l-1.485 1.487c-.294.295-.776.295-1.07 0l-2.173-2.174c-.295-.295-.295-.776 0-1.07l1.486-1.486c.295-.295.776-.295 1.07 0l2.174 2.172c.295.294.295.775 0 1.07zm5.39 5.388l-1.486 1.488c-.297.295-.776.295-1.07 0l-2.176-2.174c-.292-.295-.292-.776 0-1.07l1.488-1.49c.296-.293.774-.293 1.07 0l2.175 2.176c.29.295.29.776-.002 1.07z"/><path fill="#E30613" d="M19.47 2.812l.006-.008h-.007L3.18 19.097V65.91l.005.01L42.88 26.223"/><path fill="#575756" d="M81.59 25.234c-.295.294-.777.294-1.07 0l-2.173-2.172c-.296-.295-.296-.776 0-1.07l1.488-1.49c.292-.293.776-.293 1.07 0l1.676 1.68v-3.086L66.29 2.804h-5.375l-.877.88c-.296.294-.776.294-1.07 0l-.878-.88H27.684c.21.298.197.707-.067.968L26.13 5.26c-.297.297-.777.295-1.073 0l-2.173-2.172c-.08-.083-.136-.178-.17-.284h-3.238l-.007.008L82.573 65.92l.006-.01V24.245l-.99.99zM33.005 9.16l-1.49 1.49c-.293.294-.775.294-1.068 0l-2.175-2.176c-.295-.292-.295-.773 0-1.067L29.76 5.92c.296-.296.775-.296 1.072 0l2.174 2.17c.293.295.293.78 0 1.07zm5.386 5.39l-1.486 1.488c-.296.295-.775.292-1.072 0l-2.175-2.175c-.293-.294-.293-.775 0-1.07l1.487-1.488c.295-.292.78-.292 1.07 0l2.175 2.175c.295.294.295.775 0 1.07zm5.39 5.39l-1.488 1.487c-.295.292-.775.292-1.07 0l-2.176-2.175c-.294-.294-.294-.775 0-1.07l1.488-1.488c.295-.295.776-.295 1.07 0l2.175 2.175c.293.29.293.774 0 1.07zm5.387 5.385l-1.49 1.488c-.295.295-.774.295-1.07.003l-2.173-2.175c-.294-.293-.294-.774 0-1.072l1.485-1.485c.296-.295.778-.295 1.072 0l2.175 2.175c.292.292.292.775 0 1.067zm5.387 5.39L53.07 32.2c-.296.295-.774.292-1.072 0l-2.174-2.174c-.293-.295-.293-.776 0-1.07l1.488-1.486c.296-.295.776-.297 1.072 0l2.173 2.172c.295.297.295.776 0 1.07zm5.386 5.39l-1.485 1.487c-.295.292-.776.292-1.07 0l-2.175-2.174c-.296-.295-.296-.776 0-1.07l1.49-1.49c.29-.293.773-.293 1.068 0l2.173 2.176c.297.294.297.775 0 1.07zm5.39 5.388l-1.488 1.485c-.292.294-.773.294-1.068.002l-2.173-2.174c-.296-.295-.296-.776-.003-1.07l1.49-1.49c.294-.293.774-.293 1.07 0l2.173 2.176c.296.292.296.776 0 1.07zm1.58-33.912l-1.49 1.492c-.292.295-.774.295-1.068 0L62.18 6.897c-.293-.294-.293-.776 0-1.07l1.488-1.488c.294-.296.774-.296 1.07 0l2.173 2.173c.297.292.297.776.002 1.068zm5.388 5.39l-1.488 1.488c-.293.295-.774.295-1.07 0l-2.173-2.174c-.296-.292-.296-.773 0-1.07l1.488-1.486c.293-.295.77-.295 1.07 0L72.3 11.9c.294.294.294.778 0 1.07zm5.39 5.39l-1.49 1.487c-.292.295-.773.295-1.068 0l-2.174-2.174c-.295-.292-.295-.776 0-1.07l1.488-1.49c.294-.29.776-.29 1.07 0l2.175 2.176c.292.293.292.775 0 1.07z"/><path fill="#FD0" d="M66.304 82.198l-.007.01h.007l16.29-16.294V19.1l-.005-.01-39.697 39.697"/><g fill="#F6F6F6"><path d="M98.08 21.744h9.026v3.204h-5.474v4.162h4.795v3.177h-4.795V39.4h-3.554V21.743zM109.928 21.744h3.558v17.654h-3.558V21.744zM116.865 21.744h3.557v14.45h5.75V39.4h-9.307V21.744zM137.946 33.772l5.07-12.028h4.587v17.654H144.2v-12.61l-4.59 11.12h-3.308l-4.588-11.12v12.61h-3.404V21.744h4.59l5.046 12.028zM150.023 30.573c0-5.148 3.754-9.16 9.18-9.16 5.422 0 9.183 4.01 9.183 9.16 0 5.192-3.76 9.153-9.184 9.153-5.425 0-9.18-3.96-9.18-9.153zm3.702 0c0 3.38 2.3 5.823 5.477 5.823 3.176 0 5.473-2.444 5.473-5.823 0-3.335-2.297-5.83-5.473-5.83-3.178 0-5.477 2.494-5.477 5.83zM181.443 27.216l-3.33 12.18h-4.01l-4.74-17.653h3.882l3.05 13.214 3.51-13.214h3.278l3.51 13.214 3.076-13.214h3.855l-4.72 17.654h-4.035l-3.327-12.18zM195.462 21.744h9.08v3.204h-5.526v3.934h4.74v3.15h-4.74v4.19h5.752v3.176h-9.306V21.744z"/><g><path d="M97.134 56.442l1.4-.795V47.02h3.526v6.678l2.7-1.55v3.35l-2.7 1.5v4.374h5.702v3.147h-9.227v-5.597l-1.4.823v-3.304zM108.985 55.77c0-5.1 3.726-9.072 9.1-9.072s9.103 3.972 9.103 9.072c0 5.15-3.727 9.075-9.102 9.075s-9.1-3.924-9.1-9.075zm3.675 0c0 3.352 2.278 5.775 5.426 5.775s5.426-2.423 5.426-5.775c0-3.304-2.278-5.773-5.426-5.773s-5.426 2.47-5.426 5.773zm5.325-13.3h3.627l-2.425 3.6h-2.873l1.67-3.6zM129.613 47.02h4.648c5.727 0 9.277 3.274 9.277 8.75 0 5.6-3.577 8.748-9.276 8.748h-4.647V47.02zm4.776 14.45c3.32 0 5.472-1.926 5.472-5.7 0-3.673-2.152-5.674-5.473-5.674h-1.252V61.47h1.25zM145.115 62.22l8.598-12.073h-8.348V47.02h13.05v2.3l-8.654 12.075h8.73v3.123h-13.374V62.22zM161.062 47.02h3.526v8.002l5.775-8.002h3.952l-6.3 8.376 6.497 9.122h-4.052l-5.873-8.498v8.498h-3.526V47.02zM176.44 47.02h3.523v17.498h-3.523V47.02zM183.316 47.02h8.997v3.177h-5.473v3.897h4.698v3.127h-4.698v4.15h5.698v3.147h-9.223V47.02z"/></g></g></svg>