<?xml version="1.0" encoding="utf-8"?>
<!-- Generator: Adobe Illustrator 15.1.0, SVG Export Plug-In . SVG Version: 6.00 Build 0)  -->
<!DOCTYPE svg PUBLIC "-//W3C//DTD SVG 1.1//EN" "http://www.w3.org/Graphics/SVG/1.1/DTD/svg11.dtd">
<svg version="1.1" id="Warstwa_1" xmlns="http://www.w3.org/2000/svg" xmlns:xlink="http://www.w3.org/1999/xlink" x="0px" y="0px"
	 width="960px" height="111px" viewBox="0 0 960 111" enable-background="new 0 0 960 111" xml:space="preserve">
<rect fill="#585857" width="960" height="111"/>
<path d="M81.531,34.129c0-7.428-6.131-13.451-13.694-13.451H38.45c-7.564,0-13.695,6.023-13.695,13.451v42.74
	c0,7.429,6.131,13.453,13.695,13.453h29.387c7.564,0,13.694-6.024,13.694-13.453V34.129L81.531,34.129z"/>
<path d="M187.817,34.129c0-7.428-6.131-13.451-13.695-13.451h-29.388c-7.563,0-13.695,6.023-13.695,13.451v42.74
	c0,7.429,6.131,13.453,13.695,13.453h29.388c7.564,0,13.695-6.024,13.695-13.453V34.129L187.817,34.129z"/>
<path d="M294.103,34.129c0-7.428-6.131-13.451-13.695-13.451H251.02c-7.563,0-13.695,6.023-13.695,13.451v42.74
	c0,7.429,6.131,13.453,13.695,13.453h29.388c7.564,0,13.695-6.024,13.695-13.453V34.129L294.103,34.129z"/>
<path d="M400.388,34.129c0-7.428-6.131-13.451-13.694-13.451h-29.389c-7.563,0-13.695,6.023-13.695,13.451v42.74
	c0,7.429,6.131,13.453,13.695,13.453h29.389c7.563,0,13.694-6.024,13.694-13.453V34.129z"/>
<path d="M506.674,34.129c0-7.428-6.133-13.451-13.691-13.451h-29.39c-7.563,0-13.694,6.023-13.694,13.451v42.74
	c0,7.429,6.131,13.453,13.694,13.453h29.39c7.561,0,13.691-6.024,13.691-13.453V34.129z"/>
<path d="M612.959,34.129c0-7.428-6.131-13.451-13.693-13.451h-29.389c-7.563,0-13.693,6.023-13.693,13.451v42.74
	c0,7.429,6.133,13.453,13.693,13.453h29.389c7.563,0,13.693-6.024,13.693-13.453V34.129z"/>
<path d="M719.244,34.129c0-7.428-6.131-13.451-13.691-13.451h-29.391c-7.561,0-13.693,6.023-13.693,13.451v42.74
	c0,7.429,6.133,13.453,13.693,13.453h29.391c7.563,0,13.691-6.024,13.691-13.453V34.129z"/>
<path d="M825.531,34.129c0-7.428-6.133-13.451-13.693-13.451h-29.391c-7.563,0-13.691,6.023-13.691,13.451v42.74
	c0,7.429,6.131,13.453,13.691,13.453h29.391c7.563,0,13.693-6.024,13.693-13.453V34.129z"/>
<path d="M931.818,34.129c0-7.428-6.135-13.451-13.695-13.451h-29.389c-7.563,0-13.693,6.023-13.693,13.451v42.74
	c0,7.429,6.131,13.453,13.693,13.453h29.389c7.563,0,13.695-6.024,13.695-13.453V34.129z"/>
</svg>
